<svg width="51" height="120" viewBox="0 0 51 120" fill="none" xmlns="http://www.w3.org/2000/svg">
<path d="M25.252 35.86C36.8663 35.8602 46.5223 44.8023 47.4131 56.3824L49.0293 77.3971L50.0928 118.874H0.410156L1.47363 77.3971L3.08984 56.3824C3.98063 44.8022 13.6375 35.86 25.252 35.86Z" stroke="black" stroke-width="0.8"/>
<path d="M25.2544 0.400391C31.2627 0.400391 36.4271 4.63735 37.4692 10.5449C39.0765 19.6581 41.1936 32.934 41.8677 43.0078L41.8687 43.0205L41.8706 43.0332C42.866 50.6318 43.0775 60.1922 43.0112 68.3682C42.9329 78.0294 34.934 85.5623 25.2476 85.5625C15.5644 85.5625 7.56691 78.0346 7.48877 68.377C7.42276 60.2179 7.63507 50.6689 8.63232 43.0332L8.63428 43.0205L8.63525 43.0078C9.30577 32.9868 11.4275 19.6845 13.0366 10.5508C14.078 4.64037 19.2435 0.400418 25.2544 0.400391Z" fill="#F3F1F1" stroke="black" stroke-width="0.8"/>
</svg>
