<svg width="51" height="120" viewBox="0 0 51 120" fill="none" xmlns="http://www.w3.org/2000/svg">
<path d="M25.252 35.86C36.8663 35.8602 46.5223 44.8023 47.4131 56.3824L49.0293 77.3971L50.0928 118.874H0.410156L1.47363 77.3971L3.08984 56.3824C3.98063 44.8022 13.6375 35.86 25.252 35.86Z" stroke="black" stroke-width="0.8"/>
<path d="M34.522 0.400391C34.5682 0.594312 34.6349 0.877798 34.7202 1.24219C34.8943 1.98544 35.1451 3.06666 35.4487 4.41699C36.056 7.11797 36.877 10.8964 37.7339 15.2041C39.4487 23.8245 41.3016 34.5484 41.8677 43.0078L41.8696 43.0332L41.8745 43.0576C43.3553 50.6477 43.6109 60.2053 43.4468 68.3828C43.2508 78.1463 35.0493 85.5625 25.2456 85.5625C15.4469 85.5625 7.24878 78.1538 7.05322 68.3955C6.88971 60.2341 7.1462 50.6861 8.62842 43.0576L8.6333 43.0332L8.63525 43.0078C9.19782 34.6003 11.0504 23.8758 12.7661 15.2422C13.6235 10.9279 14.4464 7.13977 15.0542 4.43066C15.358 3.07641 15.6085 1.99192 15.7827 1.24609C15.8683 0.879876 15.9347 0.595075 15.981 0.400391H34.522Z" fill="#F3F1F1" stroke="black" stroke-width="0.8"/>
</svg>
