<svg width="51" height="100" viewBox="0 0 51 100" fill="none" xmlns="http://www.w3.org/2000/svg">
<path d="M25.252 16.5183C36.8663 16.5185 46.5223 25.4606 47.4131 37.0408L49.0293 58.0554L50.0928 99.532H0.410156L1.47363 58.0554L3.08984 37.0408C3.98063 25.4605 13.6375 16.5183 25.252 16.5183Z" stroke="black" stroke-width="0.8"/>
<path d="M25.2512 0.400391C28.1568 0.400391 30.6187 0.619574 32.6868 0.958008C39.0536 1.99994 42.11 8.15077 42.2249 14.8115L42.3127 19.8857L42.5813 35.4668L41.803 50.5039C41.3474 59.3126 34.0717 66.2207 25.2512 66.2207C16.4309 66.2205 9.15605 59.3125 8.70044 50.5039L7.92212 35.46V19.8789H7.92114L8.10571 14.5537C8.33012 8.04914 11.3498 2.0632 17.5618 1.00098C19.6815 0.638519 22.2256 0.400408 25.2512 0.400391Z" fill="#F3F1F1" stroke="black" stroke-width="0.8"/>
</svg>
