<svg width="51" height="96" viewBox="0 0 51 96" fill="none" xmlns="http://www.w3.org/2000/svg">
<path d="M25.252 12.2202C36.8663 12.2204 46.5223 21.1625 47.4131 32.7427L49.0293 53.7573L50.0928 95.2339H0.410156L1.47363 53.7573L3.08984 32.7427C3.98063 21.1624 13.6375 12.2202 25.252 12.2202Z" stroke="black" stroke-width="0.8"/>
<path d="M39.9661 0.400391C39.9718 0.429768 39.9781 0.461008 39.9846 0.494141C40.0373 0.763704 40.1136 1.15664 40.2063 1.64648C40.3917 2.62621 40.6444 3.99633 40.9133 5.55762C41.4519 8.68382 42.0533 12.5655 42.3137 15.6152C42.8294 21.6547 42.6161 25.0583 42.5813 31.1592C42.5554 35.6967 42.3245 41.1821 42.0452 46.2793C41.5608 55.1193 34.1766 61.9228 25.3108 61.9229C16.3974 61.9229 8.99185 55.0481 8.51294 46.1572C8.2402 41.0938 7.99865 35.6576 7.92114 31.1543C7.81587 25.0385 7.40367 21.6947 7.92017 15.6143C8.17769 12.5829 8.84615 8.70538 9.45239 5.57617C9.75513 4.01355 10.0413 2.64072 10.2522 1.65918C10.3576 1.16867 10.4441 0.775887 10.5042 0.505859C10.5125 0.468318 10.5203 0.433118 10.5276 0.400391H39.9661Z" fill="#F3F1F1" stroke="black" stroke-width="0.8"/>
</svg>
