<svg width="51" height="100" viewBox="0 0 51 100" fill="none" xmlns="http://www.w3.org/2000/svg">
<path d="M25.252 16.5183C36.8663 16.5185 46.5223 25.4606 47.4131 37.0408L49.0293 58.0554L50.0928 99.532H0.410156L1.47363 58.0554L3.08984 37.0408C3.98063 25.4605 13.6375 16.5183 25.252 16.5183Z" stroke="black" stroke-width="0.8"/>
<path d="M25.2512 0.400391C35.3003 0.400391 39.5765 2.47318 41.2073 3.6709C41.7975 4.10439 42.0531 4.84826 42.0676 5.69238L42.3127 19.8857L42.5813 35.4668L41.803 50.5039C41.3474 59.3126 34.0717 66.2207 25.2512 66.2207C16.4309 66.2205 9.15605 59.3125 8.70044 50.5039L7.92212 35.46V19.8789H7.92114L8.41235 5.65234C8.44051 4.8357 8.69272 4.1206 9.26001 3.69824C10.8635 2.50488 15.1277 0.400435 25.2512 0.400391Z" fill="#F3F1F1" stroke="black" stroke-width="0.8"/>
</svg>
