<svg width="51" height="133" viewBox="0 0 51 133" fill="none" xmlns="http://www.w3.org/2000/svg">
<path d="M25.252 48.7544C36.8663 48.7546 46.5223 57.6967 47.4131 69.2769L49.0293 90.2915L50.0928 131.768H0.410156L1.47363 90.2915L3.08984 69.2769C3.98063 57.6966 13.6375 48.7544 25.252 48.7544Z" stroke="black" stroke-width="0.8"/>
<path d="M26.011 1.43262C26.662 2.17392 27.5632 3.23765 28.5608 4.52539C30.5591 7.10484 32.9322 10.567 34.47 14.1279C36.0075 17.6884 37.5753 23.8827 38.9006 31.3311C40.2243 38.7701 41.3015 47.4299 41.8684 55.9023L41.8704 55.9395L41.8801 55.9766C43.8463 63.5627 44.1443 73.1232 43.8811 81.3047C43.5638 91.164 35.16 98.457 25.2444 98.457C15.3348 98.457 6.93491 91.1723 6.61841 81.3193C6.35611 73.1534 6.65593 63.6011 8.62329 55.9756L8.63306 55.9395L8.63501 55.9023C9.19841 47.482 10.2753 38.8223 11.5999 31.3701C12.9261 23.9084 14.496 17.6883 16.0334 14.1279C17.5712 10.567 19.9443 7.10484 21.9426 4.52539C22.9403 3.23763 23.8414 2.17392 24.4924 1.43262C24.8119 1.06889 25.0705 0.782454 25.2512 0.585938C25.432 0.782469 25.6913 1.06861 26.011 1.43262Z" fill="#F3F1F1" stroke="black" stroke-width="0.8"/>
</svg>
